<svg xmlns="http://www.w3.org/2000/svg" viewBox="0 0 2000 2000"><defs><style>.f5b3179c-1938-45a4-a96a-aa7b4da7a6fd{fill:#fff;opacity:0;}.e0c1db9b-3579-447f-bfd9-3f2e7bc91ca0{fill:#5dc2af;}</style></defs><g id="bfcac73f-4b6a-4570-a49f-1695b2264316" data-name="Слой 2"><rect class="f5b3179c-1938-45a4-a96a-aa7b4da7a6fd" width="2000" height="2000"/></g><g id="f5d3c4fe-d5e3-43da-aff3-29435654d6e2" data-name="be3fb3fc-2b29-41a1-b131-4eb4eb53bf5a"><path class="e0c1db9b-3579-447f-bfd9-3f2e7bc91ca0" d="M817.40356,1395.50317l-387.90713-330.613a40.00019,40.00019,0,0,1-4.49652-56.38983l.00009-.00013.00006-.00006a40.00018,40.00018,0,0,1,56.38977-4.4964L826.845,1298.43506a13.37578,13.37578,0,0,0,18.03-.61865l673.56049-658.93726A39.99957,39.99957,0,0,1,1575,639.49988l.00012.00018v.00006a39.9995,39.9995,0,0,1-.62085,56.56421L860.94672,1394.009A32.30268,32.30268,0,0,1,817.40356,1395.50317Z"/></g></svg>